<?xml version="1.0" encoding="UTF-8"?>
<svg version="1.1" xmlns="http://www.w3.org/2000/svg" width="500" height="500">
<path d="M0 0 C2.1875 2.125 2.1875 2.125 3 5 C0.69670928 11.79290817 -3.36677896 17.66273266 -7.1875 23.6875 C-8.19417725 25.28791138 -8.19417725 25.28791138 -9.22119141 26.9206543 C-13.26648961 33.3313405 -17.37184983 39.68780852 -21.6796875 45.92578125 C-23.15342322 48.05584661 -23.15342322 48.05584661 -24 51 C-23.01 51.33 -22.02 51.66 -21 52 C-19.75261069 53.66510628 -18.57452727 55.38266593 -17.4375 57.125 C-13.94804232 62.08336542 -10.47742699 65.17940938 -5.41015625 68.4375 C-1.95770853 70.6757157 0.99530619 73.19126448 4 76 C4 76.66 4 77.32 4 78 C4.87011719 78.31904297 4.87011719 78.31904297 5.7578125 78.64453125 C15.80365659 84.71754153 21.23465844 104.17744982 23.875 114.8125 C26.88171013 130.57983109 26.03590438 144.72636922 16.9765625 158.23828125 C10.49035394 167.30102721 10.49035394 167.30102721 7 171 C6.34 171 5.68 171 5 171 C4.76023437 171.69480469 4.52046875 172.38960937 4.2734375 173.10546875 C2.78155281 176.49653179 0.804723 179.34308382 -1.375 182.3125 C-1.81054199 182.9120752 -2.24608398 183.51165039 -2.69482422 184.12939453 C-3.63281732 185.41636212 -4.57383679 186.7011284 -5.51757812 187.98388672 C-6.52008303 189.3473066 -7.51868185 190.71360584 -8.51367188 192.08251953 C-21.11055782 209.40925533 -21.11055782 209.40925533 -27 214 C-27.66 214 -28.32 214 -29 214 C-29 214.66 -29 215.32 -29 216 C-49.84019501 232.92040911 -80.32084774 237.82209543 -106.60498047 236.26757812 C-114.32692032 235.40486191 -120.84929177 231.53980846 -127 227 C-127.9075 226.4225 -128.815 225.845 -129.75 225.25 C-149.49356572 211.58137758 -158.2064767 195.46494638 -165 173 C-166.09910304 175.19820608 -166.21277362 176.58232939 -166.37304688 179.02124023 C-166.42983109 179.85587799 -166.4866153 180.69051575 -166.54512024 181.55044556 C-166.60241806 182.46063446 -166.65971588 183.37082336 -166.71875 184.30859375 C-166.78132492 185.25390961 -166.84389984 186.19922546 -166.90837097 187.17318726 C-167.11077709 190.26098037 -167.30600368 193.34916779 -167.5 196.4375 C-167.56692047 197.48642426 -167.63384094 198.53534851 -167.70278931 199.61605835 C-168.72872763 215.73655633 -169.68083083 231.84738032 -170 248 C-170.03287109 249.5161792 -170.03287109 249.5161792 -170.06640625 251.06298828 C-170.35028135 266.06815311 -169.60717664 280.89261694 -168.4375 295.8515625 C-168.09926667 300.25520194 -167.89643112 304.58537632 -168 309 C-164.2225186 306.48167906 -163.69631616 304.13016107 -162 300 C-161.34 299.34 -160.68 298.68 -160 298 C-157.5 298.1875 -157.5 298.1875 -155 299 C-152.22139123 303.16791315 -152.8288493 306.10814731 -153.3359375 310.97265625 C-154.3318318 315.5127626 -156.19318501 318.3369366 -160 321 C-163.5 322.1875 -163.5 322.1875 -167 322 C-171.52356971 319.73821514 -173.71320312 317.43613602 -176 313 C-176.9140625 309.765625 -176.9140625 309.765625 -177.625 306.25 C-177.98464844 304.52523437 -177.98464844 304.52523437 -178.3515625 302.765625 C-179.64862924 295.23326154 -180.15720784 287.84880579 -180.16796875 280.2109375 C-180.1721582 279.28650345 -180.17634766 278.3620694 -180.18066406 277.40962219 C-180.19044942 274.39803819 -180.19044464 271.38659735 -180.1875 268.375 C-180.18722809 267.33622711 -180.18695618 266.29745422 -180.18667603 265.22720337 C-180.14663743 231.75718088 -179.53545441 197.08412786 -174 164 C-173.7117153 159.53158711 -173.68650014 156.36698504 -175.4375 152.25 C-177.03946678 148.13866534 -177.79305762 144.25165904 -178.25 139.875 C-178.33080811 139.11219727 -178.41161621 138.34939453 -178.49487305 137.56347656 C-180.72771711 112.89067359 -176.09428295 89.63353169 -163.47167969 68.36962891 C-158.48790691 59.74354535 -155.35094038 50.34715707 -152 41 C-149.16548158 33.16548158 -149.16548158 33.16548158 -148 32 C-145.5625 31.8125 -145.5625 31.8125 -143 32 C-142.34 32.66 -141.68 33.32 -141 34 C-141.0234375 36.3828125 -141.0234375 36.3828125 -141.375 39.125 C-141.48585938 40.03507812 -141.59671875 40.94515625 -141.7109375 41.8828125 C-141.80632812 42.58148438 -141.90171875 43.28015625 -142 44 C-138.86762599 41.93721712 -135.81769474 39.86310329 -132.81640625 37.609375 C-128.93146029 34.8330962 -124.86612459 32.8442974 -120.5 30.9375 C-119.71898926 30.59388428 -118.93797852 30.25026855 -118.13330078 29.89624023 C-94.97890699 19.99608099 -71.83982197 19.38082402 -48.4375 28.375 C-43.44424975 30.55572562 -39.96128038 33.29706399 -36 37 C-35.34 37 -34.68 37 -34 37 C-32.83813219 35.55140866 -32.83813219 35.55140866 -31.75 33.625 C-31.31099365 32.89418213 -30.8719873 32.16336426 -30.41967773 31.41040039 C-29.95118408 30.61496826 -29.48269043 29.81953613 -29 29 C-28.0124935 27.35239998 -27.02419481 25.70527455 -26.03515625 24.05859375 C-25.53258301 23.21796387 -25.03000977 22.37733398 -24.51220703 21.51123047 C-22.1976315 17.66755531 -19.82147161 13.86339382 -17.4375 10.0625 C-17.02048828 9.39541016 -16.60347656 8.72832031 -16.17382812 8.04101562 C-11.58258303 0.70872868 -8.82479922 -2.63099604 0 0 Z M-111 32 C-112.69189453 32.61101562 -112.69189453 32.61101562 -114.41796875 33.234375 C-121.04519952 35.82143087 -127.06065439 39.10172981 -133 43 C-134.46566406 43.91265625 -134.46566406 43.91265625 -135.9609375 44.84375 C-136.94320312 45.4934375 -137.92546875 46.143125 -138.9375 46.8125 C-139.83339844 47.39644531 -140.72929687 47.98039062 -141.65234375 48.58203125 C-147.29522289 54.39391509 -148.07890346 64.14365883 -149.75 71.8125 C-150.00241455 72.96177979 -150.2548291 74.11105957 -150.51489258 75.29516602 C-154.80520728 95.08445492 -158.89174095 114.9873743 -162 135 C-162.18695435 136.17260376 -162.18695435 136.17260376 -162.37768555 137.36889648 C-162.89105935 140.90021244 -162.99573913 143.58603726 -162 147 C-161.01701402 143.77198351 -160.03929198 140.54239567 -159.0625 137.3125 C-158.78470703 136.40048828 -158.50691406 135.48847656 -158.22070312 134.54882812 C-157.95322266 133.66259766 -157.68574219 132.77636719 -157.41015625 131.86328125 C-157.16402588 131.05157471 -156.91789551 130.23986816 -156.66430664 129.40356445 C-155.54955921 125.37023535 -154.77620889 122.12745479 -155.625 118 C-156.05008884 115.0519813 -156.08517535 114.18828234 -154.8125 111.375 C-153.9153125 110.199375 -153.9153125 110.199375 -153 109 C-152.484375 107.948125 -151.96875 106.89625 -151.4375 105.8125 C-148.27430717 102.16266212 -145.97507229 102.16048243 -141.3515625 101.4921875 C-138.23713901 100.84033142 -136.78802827 99.60076839 -135 97 C-135 96.34 -135 95.68 -135 95 C-134.34 95 -133.68 95 -133 95 C-133 94.34 -133 93.68 -133 93 C-134.0725 92.4225 -135.145 91.845 -136.25 91.25 C-141.03993697 88.45345094 -143.88000123 86.20930222 -145.5 80.75 C-146.26579101 76.44597092 -145.82105435 73.50902101 -143.6015625 69.734375 C-140.44602719 66.31716115 -136.44634678 65.02336553 -132 64 C-127.96455577 63.84479061 -125.78724966 64.86342817 -122.75 67.375 C-118.90849477 71.47796894 -118.55725148 76.60042529 -118 82 C-115.99246302 80.90959673 -113.99411249 79.80226428 -112 78.6875 C-110.88625 78.07261719 -109.7725 77.45773438 -108.625 76.82421875 C-107.75875 76.22222656 -106.8925 75.62023437 -106 75 C-106 71.58572878 -106.42250858 71.19780213 -108.5 68.6875 C-110.32944784 66.20653939 -110.99064546 65.05093029 -111.5625 61.9375 C-110.42989186 56.02276858 -106.8319719 52.34521131 -102 49 C-97.9116659 47.63722197 -94.15911373 47.12245277 -90.05859375 48.7890625 C-86.86002835 50.53859096 -85.03834737 51.94247895 -83 55 C-82.8046875 57.26171875 -82.8046875 57.26171875 -82.875 59.6875 C-82.89304687 60.49574219 -82.91109375 61.30398437 -82.9296875 62.13671875 C-82.95289063 62.75160156 -82.97609375 63.36648437 -83 64 C-76.79176019 62.90290981 -70.61085011 61.71734088 -64.4375 60.4375 C-60.02676606 59.52570877 -55.8076648 58.85705128 -51.3125 58.625 C-48.03844443 58.33373311 -47.28993979 58.25772426 -44.75 56 C-44.1725 55.01 -43.595 54.02 -43 53 C-41.92253611 51.39188515 -40.83881214 49.78795304 -39.75 48.1875 C-38.83105746 46.79316393 -37.91361578 45.39783214 -37 44 C-39.5871088 37.83074056 -45.34073788 35.1708452 -51.23828125 32.57421875 C-54.47422079 31.30895519 -57.70620501 30.10594576 -61 29 C-62.04285156 28.63261719 -63.08570313 28.26523438 -64.16015625 27.88671875 C-79.63289303 24.3136656 -96.28664857 26.53623671 -111 32 Z M-27 53 C-29.25885324 56.25397508 -29.25885324 56.25397508 -30 60 C-27.03 60.33 -24.06 60.66 -21 61 C-22.78155733 57.43688534 -24.16763009 55.64354525 -27 53 Z M-165.4765625 80.99609375 C-167.7130604 83.93794868 -168.55001246 87.24941216 -169.5625 90.75 C-169.87477539 91.78640625 -169.87477539 91.78640625 -170.19335938 92.84375 C-170.60833056 94.22785451 -171.01671814 95.61395015 -171.41845703 97.00195312 C-171.95515246 98.84591424 -172.52119267 100.68126666 -173.08984375 102.515625 C-177.02109193 117.56572535 -176.8493733 136.22095757 -172 151 C-171.67 151 -171.34 151 -171 151 C-170.94577881 150.41138184 -170.89155762 149.82276367 -170.83569336 149.21630859 C-169.01428453 130.19190142 -165.72039352 111.55850556 -162.10386658 92.80917358 C-161.34708021 88.88075399 -160.6391957 84.94928874 -160 81 C-162.82928688 79.86177432 -162.82928688 79.86177432 -165.4765625 80.99609375 Z " fill="#767676" transform="translate(406,128)"/>
<path d="M0 0 C2.75 0.4375 2.75 0.4375 3.75 1.4375 C4.46420272 8.91664725 3.17019826 16.30292218 2.01229858 23.66915894 C-0.74183929 41.31370379 -2.79929905 59.0429757 -4.82352829 76.78268051 C-5.06249592 78.87496427 -5.30262391 80.96711217 -5.54299927 83.05923462 C-5.99727783 87.01692932 -6.44655759 90.97518005 -6.89453125 94.93359375 C-7.10042877 96.73765182 -7.10042877 96.73765182 -7.31048584 98.57815552 C-7.43465881 99.68730316 -7.55883179 100.79645081 -7.68676758 101.93920898 C-7.7960408 102.90841782 -7.90531403 103.87762665 -8.01789856 104.87620544 C-8.310166 107.67281458 -8.310166 107.67281458 -8.25 111.4375 C-7.92128906 110.43074219 -7.59257812 109.42398438 -7.25390625 108.38671875 C1.46428551 82.35436111 14.90199217 59.97021353 31.75 38.4375 C32.43191406 37.55449219 33.11382812 36.67148438 33.81640625 35.76171875 C35.59761903 33.620665 37.37951417 31.85877932 39.5 30.0625 C41.56354789 28.30943087 43.61315463 26.56562911 45.58984375 24.71484375 C56.46822103 14.61842171 68.16885115 8.04016892 83.1328125 8.22265625 C87.91254955 8.61502272 90.70630771 10.57199908 94.3125 13.5625 C105.03227273 26.2063345 106.4192339 41.70649225 105.58203125 57.6328125 C103.28890397 81.75111589 91.8389507 105.37284883 78.75 125.4375 C78.06421875 126.52933594 77.3784375 127.62117188 76.671875 128.74609375 C68.92136771 141.0732421 60.54114638 152.98838987 51.625 164.5 C51.16367676 165.10199219 50.70235352 165.70398438 50.22705078 166.32421875 C49.11671186 167.73502199 47.93931038 169.09259884 46.75 170.4375 C46.09 170.4375 45.43 170.4375 44.75 170.4375 C44.5334375 170.96859375 44.316875 171.4996875 44.09375 172.046875 C42.25159748 175.32419285 39.78862231 177.94552551 37.25 180.6875 C36.75113281 181.24179688 36.25226563 181.79609375 35.73828125 182.3671875 C34.4531646 183.7660008 33.10566232 185.10694254 31.75 186.4375 C31.09 186.4375 30.43 186.4375 29.75 186.4375 C29.54503906 186.98277344 29.34007812 187.52804688 29.12890625 188.08984375 C27.21081374 191.35549134 24.54887378 193.58633798 21.6875 196 C21.10911377 196.49089111 20.53072754 196.98178223 19.93481445 197.48754883 C15.43895284 201.16530185 11.47639518 203.17575191 5.75 204.4375 C6.1200415 204.97697266 6.49008301 205.51644531 6.87133789 206.07226562 C10.58702925 211.55708118 13.94181741 217.16557788 17.1875 222.9375 C23.56760938 234.08034757 30.98580411 246.82066319 43.75 251.4375 C49.69961275 252.2087461 53.86370291 250.6772112 58.75 247.4375 C66.3936186 240.21852688 67.87993978 228.26948326 69.75 218.4375 C72.0625 217.75 72.0625 217.75 74.75 217.4375 C76.5625 218.640625 76.5625 218.640625 77.75 220.4375 C77.75 233.2915056 72.26199833 245.99476627 63.75 255.4375 C59.08764677 259.59307571 53.92865198 261.15980778 47.75 261.4375 C36.3809179 260.03101562 28.26344949 255.13240296 21.0546875 246.37890625 C15.81369782 239.57835082 11.76896063 232.28256602 7.78271484 224.69506836 C3.39748904 216.44057331 -1.20927817 209.83714587 -8.7109375 204.17578125 C-10.25 202.4375 -10.25 202.4375 -10.6015625 199.85546875 C-10.25 197.4375 -10.25 197.4375 -8.25 195.4375 C-6.1484375 195.34765625 -6.1484375 195.34765625 -3.625 195.5 C4.62464986 195.6303824 9.78947361 192.79960427 16.0859375 187.64453125 C17.75 186.4375 17.75 186.4375 19.75 186.4375 C20.08 185.4475 20.41 184.4575 20.75 183.4375 C22.37917956 181.70958228 24.0331918 180.07474879 25.75 178.4375 C27.15012961 177.06687504 28.5457324 175.69161517 29.9375 174.3125 C30.61167969 173.64992187 31.28585938 172.98734375 31.98046875 172.3046875 C33.92553358 170.35806683 33.92553358 170.35806683 35.75 167.4375 C36.41 167.4375 37.07 167.4375 37.75 167.4375 C38.02384521 166.84831787 38.29769043 166.25913574 38.57983398 165.65209961 C39.71103328 163.51124652 40.91767955 161.85154118 42.47265625 160.00390625 C43.27340576 159.04121826 43.27340576 159.04121826 44.09033203 158.05908203 C44.94280518 157.03983643 44.94280518 157.03983643 45.8125 156 C69.32566954 127.40814092 96.20003349 86.51845112 96.125 48.125 C96.12411377 47.3004834 96.12322754 46.4759668 96.12231445 45.62646484 C95.95124572 36.74304805 93.78329796 28.83867952 88.75 21.4375 C85.62946294 18.79261062 82.40004504 17.39827547 78.28515625 17.49609375 C67.87881192 19.30798421 60.64331342 24.70779053 52.75 31.4375 C51.50863281 32.47583984 51.50863281 32.47583984 50.2421875 33.53515625 C29.47889002 51.46709498 15.78307987 76.69211573 4.75 101.4375 C4.21761719 102.60925781 3.68523437 103.78101563 3.13671875 104.98828125 C-4.51897438 122.87907895 -10.819339 143.3423582 -12.06640625 162.84375 C-12.12779282 163.72615356 -12.18917938 164.60855713 -12.25242615 165.5177002 C-12.38076633 167.38316116 -12.50580029 169.24885226 -12.62768555 171.11474609 C-12.80842563 173.87527028 -12.99992063 176.63487122 -13.19335938 179.39453125 C-14.55388186 199.19551036 -15.27564614 218.98783332 -15.49609375 238.83203125 C-15.50874614 239.95740358 -15.50874614 239.95740358 -15.52165413 241.10551071 C-15.59894714 248.07994475 -15.67027861 255.05441781 -15.72680664 262.02905273 C-15.75856464 265.8964525 -15.79974981 269.76365553 -15.84700203 273.63089561 C-15.86294249 275.08729268 -15.87530045 276.54373378 -15.88390923 278.00019264 C-15.89604999 280.01558252 -15.92123172 282.03088115 -15.94702148 284.04614258 C-15.95732895 285.1876326 -15.96763641 286.32912262 -15.97825623 287.50520325 C-16.24198702 290.35103465 -16.77119323 292.02492548 -18.25 294.4375 C-20.23 294.4375 -22.21 294.4375 -24.25 294.4375 C-33.96110655 265.01855958 -29.82446745 224.93263562 -27 194.5 C-26.89083252 193.32163574 -26.78166504 192.14327148 -26.66918945 190.92919922 C-26.06528553 185.22121811 -25.28831993 179.5764032 -24.3293457 173.91870117 C-21.86995611 159.40572126 -20.28558293 145.00908069 -19.21081543 130.33074951 C-18.73203282 123.83917161 -18.21550697 117.35070337 -17.68359375 110.86328125 C-17.62890553 110.19558716 -17.5742173 109.52789307 -17.51787186 108.83996582 C-15.70372415 86.8945708 -12.99940394 65.03776701 -10.3028717 43.186203 C-9.53500927 36.94352407 -8.84451176 30.69913508 -8.25 24.4375 C-14.10193186 36.25437973 -19.43714644 47.7910506 -23.25 60.4375 C-23.99203705 62.73175742 -24.74152425 65.02362459 -25.5 67.3125 C-25.81453125 68.27929688 -26.1290625 69.24609375 -26.453125 70.2421875 C-27.25 72.4375 -27.25 72.4375 -28.25 73.4375 C-29.91617115 73.47813832 -31.58388095 73.480221 -33.25 73.4375 C-35.66400169 69.35930018 -35.1720281 67.13149451 -34.1328125 62.65234375 C-30.16191003 48.19193343 -17.20166137 2.31560826 0 0 Z " fill="#171718" transform="translate(138.25,29.5625)"/>
<path d="M0 0 C7.21007563 4.3125686 14.23617504 8.80922504 20 15 C20 15.66 20 16.32 20 17 C20.58007812 17.21269531 21.16015625 17.42539063 21.7578125 17.64453125 C31.80365659 23.71754153 37.23465844 43.17744982 39.875 53.8125 C42.88171013 69.57983109 42.03590438 83.72636922 32.9765625 97.23828125 C26.49035394 106.30102721 26.49035394 106.30102721 23 110 C22.34 110 21.68 110 21 110 C20.76023437 110.69480469 20.52046875 111.38960938 20.2734375 112.10546875 C18.78155281 115.49653179 16.804723 118.34308382 14.625 121.3125 C14.18945801 121.9120752 13.75391602 122.51165039 13.30517578 123.12939453 C12.36718268 124.41636212 11.42616321 125.7011284 10.48242188 126.98388672 C9.47991697 128.3473066 8.48131815 129.71360584 7.48632812 131.08251953 C-5.11055782 148.40925533 -5.11055782 148.40925533 -11 153 C-11.66 153 -12.32 153 -13 153 C-13 153.66 -13 154.32 -13 155 C-33.84019501 171.92040911 -64.32084774 176.82209543 -90.60498047 175.26757812 C-98.32692032 174.40486191 -104.84929177 170.53980846 -111 166 C-111.9075 165.4225 -112.815 164.845 -113.75 164.25 C-130.61176495 152.57647042 -142.94597705 137.52548627 -147 117 C-146.505 116.01 -146.505 116.01 -146 115 C-144.08122455 117.06057175 -142.16494202 119.12337063 -140.25 121.1875 C-139.71117187 121.76564453 -139.17234375 122.34378906 -138.6171875 122.93945312 C-136.26648094 125.47649618 -133.99636353 128.00457852 -131.84375 130.71484375 C-130.10571873 132.86897148 -128.35709966 134.5900602 -126.25 136.375 C-122.17956913 139.82892401 -122.17956913 139.82892401 -120.265625 141.65234375 C-110.64040142 150.70260929 -98.43414848 157.68572727 -86 162 C-84.7625 162.433125 -83.525 162.86625 -82.25 163.3125 C-72.95558379 165.33471608 -60.52026239 165.48201303 -52 161 C-41.64444273 153.37895707 -38.03295117 145.47332147 -36 133 C-35.56699867 128.94378629 -35.2768637 124.88201707 -35 120.8125 C-33.61117831 100.78980161 -27.11882542 89.71296112 -13.44140625 75.3046875 C-0.81030596 61.80844335 8.47300268 45.48553225 8.35546875 26.5390625 C7.48969809 17.91941176 4.54440807 9.34301715 0 2 C0 1.34 0 0.68 0 0 Z " fill="#79797A" transform="translate(390,189)"/>
<path d="M0 0 C2.1875 2.125 2.1875 2.125 3 5 C0.69670928 11.79290817 -3.36677896 17.66273266 -7.1875 23.6875 C-8.19417725 25.28791138 -8.19417725 25.28791138 -9.22119141 26.9206543 C-13.26648961 33.3313405 -17.37184983 39.68780852 -21.6796875 45.92578125 C-23.15342322 48.05584661 -23.15342322 48.05584661 -24 51 C-23.01 51.33 -22.02 51.66 -21 52 C-19.83203125 53.77734375 -19.83203125 53.77734375 -18.8125 55.9375 C-18.46832031 56.64777344 -18.12414062 57.35804688 -17.76953125 58.08984375 C-17 60 -17 60 -17 62 C-21.2742558 60.4169423 -23.26531794 57.49431596 -26 54 C-26.45375 54.66 -26.9075 55.32 -27.375 56 C-28.179375 56.99 -28.179375 56.99 -29 58 C-29.66 58 -30.32 58 -31 58 C-31.37898438 59.02673828 -31.37898438 59.02673828 -31.765625 60.07421875 C-33.19579748 63.46408961 -34.93030549 66.62220619 -36.75 69.8125 C-37.13486572 70.49119141 -37.51973145 71.16988281 -37.91625977 71.86914062 C-41.5567269 78.26518523 -45.24254074 84.63532157 -48.9375 91 C-49.53425537 92.03133057 -50.13101074 93.06266113 -50.74584961 94.12524414 C-53.42123851 98.71729694 -56.1217958 103.25949968 -59.0859375 107.671875 C-64.20992852 115.3111828 -67.6153469 121.44402456 -67 131 C-67.66 131 -68.32 131 -69 131 C-69.33 129.68 -69.66 128.36 -70 127 C-70.66 127.66 -71.32 128.32 -72 129 C-72 126.36 -72 123.72 -72 121 C-72.99 121 -73.98 121 -75 121 C-75.09796875 121.556875 -75.1959375 122.11375 -75.296875 122.6875 C-76.65773857 129.63259682 -78.98896297 136.77109179 -84 142 C-84.99 142 -85.98 142 -87 142 C-85.94017391 139.87053461 -84.87007152 137.74763891 -83.78125 135.6328125 C-80.17484756 128.57393943 -77.67639756 123.0900611 -78 115 C-82.8890761 117.25467102 -86.18830198 119.39563474 -88.25 124.5 C-88.86743869 126.32213017 -89.44762609 128.15710229 -90 130 C-90.35964844 131.1446875 -90.71929687 132.289375 -91.08984375 133.46875 C-91.79751966 135.74540131 -92.49131549 138.0264364 -93.16796875 140.3125 C-94 143 -94 143 -95 145 C-94.34 145.33 -93.68 145.66 -93 146 C-93 146.99 -93 147.98 -93 149 C-92.113125 148.814375 -91.22625 148.62875 -90.3125 148.4375 C-87.14821189 148.01957516 -85.05160358 148.19222258 -82 149 C-82.33 149.99 -82.66 150.98 -83 152 C-85.79173055 152.02690104 -88.58320348 152.04679053 -91.375 152.0625 C-92.1690625 152.07087891 -92.963125 152.07925781 -93.78125 152.08789062 C-99.7734375 152.11328125 -99.7734375 152.11328125 -102 151 C-104.3329866 150.95977609 -106.66706666 150.95679753 -109 151 C-109 150.34 -109 149.68 -109 149 C-108.39671875 148.87625 -107.7934375 148.7525 -107.171875 148.625 C-102.43556869 147.42895092 -102.43556869 147.42895092 -98.65234375 144.51171875 C-95.84022286 139.1948748 -94.57189401 133.16768222 -93.125 127.3671875 C-91.29839345 121.90005263 -88.54963621 117.98433933 -83.875 114.625 C-83.19179688 114.12226563 -82.50859375 113.61953125 -81.8046875 113.1015625 C-80 112 -80 112 -78 112 C-77.61714844 110.93265625 -77.61714844 110.93265625 -77.2265625 109.84375 C-75.89987443 106.76786173 -74.2759629 104.25677488 -72.375 101.5 C-65.06677614 90.69483031 -58.51685792 79.52160075 -52.12402344 68.15844727 C-51.38780762 66.85605103 -51.38780762 66.85605103 -50.63671875 65.52734375 C-50.20061279 64.75124756 -49.76450684 63.97515137 -49.31518555 63.17553711 C-48 61 -48 61 -46.42504883 58.92797852 C-44.79316715 56.87595336 -44.79316715 56.87595336 -43.5625 53.625 C-42.00214286 50.00497142 -40.26305381 47.19948987 -38 44 C-40.67550729 36.97294924 -49.06892975 34.31881676 -55.47265625 31.4375 C-73.40982847 24.7982943 -93.30350376 26.42845394 -111 33 C-112.12792969 33.40734375 -113.25585938 33.8146875 -114.41796875 34.234375 C-121.04944002 36.82308622 -127.03400671 40.1396514 -133 44 C-133.90363281 44.53496094 -134.80726563 45.06992188 -135.73828125 45.62109375 C-136.62902344 46.17925781 -137.51976562 46.73742187 -138.4375 47.3125 C-139.64212891 48.04919922 -139.64212891 48.04919922 -140.87109375 48.80078125 C-146.353326 54.46407805 -147.12688025 64.36169265 -148.75 71.8125 C-149.13079712 73.55055908 -149.13079712 73.55055908 -149.51928711 75.32373047 C-154.23385754 97.10770559 -158.51599009 118.97385232 -161.9375 141 C-162.04522736 141.67669739 -162.15295471 142.35339478 -162.26394653 143.05059814 C-165.026743 157.3563735 -165.026743 157.3563735 -162.5234375 171.26953125 C-161.45996094 172.52830078 -161.45996094 172.52830078 -160.375 173.8125 C-159.55257812 174.79734375 -158.73015625 175.7821875 -157.8828125 176.796875 C-156.92469757 177.86711691 -155.96358765 178.93468277 -155 180 C-154.21254395 180.8962207 -154.21254395 180.8962207 -153.40917969 181.81054688 C-138.68007266 198.53287226 -122.45190595 212.8969088 -101 220 C-100.03835938 220.36738281 -99.07671875 220.73476563 -98.0859375 221.11328125 C-87.54787017 224.14130819 -75.41555061 222.36746033 -65.8203125 217.25 C-58.51593709 212.23411989 -56.48793741 203.09231827 -54.9375 194.875 C-54.28560934 190.77965465 -53.88993964 186.70829619 -53.609375 182.57421875 C-52.58841244 167.69313852 -51.32469042 154.03943373 -40 143 C-39.34 143 -38.68 143 -38 143 C-37.7525 142.443125 -37.505 141.88625 -37.25 141.3125 C-35.12526386 137.38173815 -32.65013796 134.51495196 -29.14453125 131.73828125 C-25.95874611 129.11032408 -23.63865685 126.10259072 -21.4375 122.625 C-21.05400391 122.02429688 -20.67050781 121.42359375 -20.27539062 120.8046875 C-13.3296769 109.42829006 -9.35472153 95.32527338 -11 82 C-12.24528274 77.66764597 -13.95601343 73.52727862 -15.6875 69.37109375 C-17 66 -17 66 -17 63 C-14 64 -14 64 -12.68359375 66.44140625 C-5.9892484 83.20874773 -5.18755245 96.11377804 -12.35546875 113.23828125 C-17.90154877 124.94006402 -26.43757572 134.24519194 -35.3984375 143.46875 C-46.01425453 154.61359446 -48.93412285 166.53743983 -49.875 181.5 C-51.94020515 208.19115041 -51.94020515 208.19115041 -62.3671875 218.86328125 C-70.96541667 225.84136932 -81.12060373 226.91551701 -91.83300781 226.24267578 C-110.86881474 224.11090561 -131.13471633 210.88633793 -144 197 C-144 196.34 -144 195.68 -144 195 C-144.85851562 194.64421875 -144.85851562 194.64421875 -145.734375 194.28125 C-153.61149418 189.82660329 -159.50227341 180.04068528 -165 173 C-166.09910304 175.19820608 -166.21277362 176.58232939 -166.37304688 179.02124023 C-166.42983109 179.85587799 -166.4866153 180.69051575 -166.54512024 181.55044556 C-166.60241806 182.46063446 -166.65971588 183.37082336 -166.71875 184.30859375 C-166.78132492 185.25390961 -166.84389984 186.19922546 -166.90837097 187.17318726 C-167.11077709 190.26098037 -167.30600368 193.34916779 -167.5 196.4375 C-167.56692047 197.48642426 -167.63384094 198.53534851 -167.70278931 199.61605835 C-168.72872763 215.73655633 -169.68083083 231.84738032 -170 248 C-170.03287109 249.5161792 -170.03287109 249.5161792 -170.06640625 251.06298828 C-170.35028135 266.06815311 -169.60717664 280.89261694 -168.4375 295.8515625 C-168.09926667 300.25520194 -167.89643112 304.58537632 -168 309 C-164.2225186 306.48167906 -163.69631616 304.13016107 -162 300 C-161.34 299.34 -160.68 298.68 -160 298 C-157.5 298.1875 -157.5 298.1875 -155 299 C-152.22139123 303.16791315 -152.8288493 306.10814731 -153.3359375 310.97265625 C-154.3318318 315.5127626 -156.19318501 318.3369366 -160 321 C-163.5 322.1875 -163.5 322.1875 -167 322 C-171.52356971 319.73821514 -173.71320312 317.43613602 -176 313 C-176.9140625 309.765625 -176.9140625 309.765625 -177.625 306.25 C-177.98464844 304.52523437 -177.98464844 304.52523437 -178.3515625 302.765625 C-179.64862924 295.23326154 -180.15720784 287.84880579 -180.16796875 280.2109375 C-180.1721582 279.28650345 -180.17634766 278.3620694 -180.18066406 277.40962219 C-180.19044942 274.39803819 -180.19044464 271.38659735 -180.1875 268.375 C-180.18722809 267.33622711 -180.18695618 266.29745422 -180.18667603 265.22720337 C-180.14663743 231.75718088 -179.53545441 197.08412786 -174 164 C-173.7117153 159.53158711 -173.68650014 156.36698504 -175.4375 152.25 C-177.03946678 148.13866534 -177.79305762 144.25165904 -178.25 139.875 C-178.33080811 139.11219727 -178.41161621 138.34939453 -178.49487305 137.56347656 C-180.72771711 112.89067359 -176.09428295 89.63353169 -163.47167969 68.36962891 C-158.48790691 59.74354535 -155.35094038 50.34715707 -152 41 C-149.16548158 33.16548158 -149.16548158 33.16548158 -148 32 C-145.5625 31.8125 -145.5625 31.8125 -143 32 C-142.34 32.66 -141.68 33.32 -141 34 C-141.0234375 36.3828125 -141.0234375 36.3828125 -141.375 39.125 C-141.48585938 40.03507812 -141.59671875 40.94515625 -141.7109375 41.8828125 C-141.80632812 42.58148438 -141.90171875 43.28015625 -142 44 C-138.86762599 41.93721712 -135.81769474 39.86310329 -132.81640625 37.609375 C-128.93146029 34.8330962 -124.86612459 32.8442974 -120.5 30.9375 C-119.71898926 30.59388428 -118.93797852 30.25026855 -118.13330078 29.89624023 C-94.97890699 19.99608099 -71.83982197 19.38082402 -48.4375 28.375 C-43.44424975 30.55572562 -39.96128038 33.29706399 -36 37 C-35.34 37 -34.68 37 -34 37 C-32.83813219 35.55140866 -32.83813219 35.55140866 -31.75 33.625 C-31.31099365 32.89418213 -30.8719873 32.16336426 -30.41967773 31.41040039 C-29.95118408 30.61496826 -29.48269043 29.81953613 -29 29 C-28.0124935 27.35239998 -27.02419481 25.70527455 -26.03515625 24.05859375 C-25.53258301 23.21796387 -25.03000977 22.37733398 -24.51220703 21.51123047 C-22.1976315 17.66755531 -19.82147161 13.86339382 -17.4375 10.0625 C-17.02048828 9.39541016 -16.60347656 8.72832031 -16.17382812 8.04101562 C-11.58258303 0.70872868 -8.82479922 -2.63099604 0 0 Z M-165.4765625 80.99609375 C-167.7130604 83.93794868 -168.55001246 87.24941216 -169.5625 90.75 C-169.87477539 91.78640625 -169.87477539 91.78640625 -170.19335938 92.84375 C-170.60833056 94.22785451 -171.01671814 95.61395015 -171.41845703 97.00195312 C-171.95515246 98.84591424 -172.52119267 100.68126666 -173.08984375 102.515625 C-177.02109193 117.56572535 -176.8493733 136.22095757 -172 151 C-171.67 151 -171.34 151 -171 151 C-170.94577881 150.41138184 -170.89155762 149.82276367 -170.83569336 149.21630859 C-169.01428453 130.19190142 -165.72039352 111.55850556 -162.10386658 92.80917358 C-161.34708021 88.88075399 -160.6391957 84.94928874 -160 81 C-162.82928688 79.86177432 -162.82928688 79.86177432 -165.4765625 80.99609375 Z " fill="#151516" transform="translate(406,128)"/>
<path d="M0 0 C2.75 0.4375 2.75 0.4375 3.75 1.4375 C4.46420272 8.91664725 3.17019826 16.30292218 2.01229858 23.66915894 C-0.74183929 41.31370379 -2.79929905 59.0429757 -4.82352829 76.78268051 C-5.06249592 78.87496427 -5.30262391 80.96711217 -5.54299927 83.05923462 C-5.99727783 87.01692932 -6.44655759 90.97518005 -6.89453125 94.93359375 C-7.10042877 96.73765182 -7.10042877 96.73765182 -7.31048584 98.57815552 C-7.43465881 99.68730316 -7.55883179 100.79645081 -7.68676758 101.93920898 C-7.7960408 102.90841782 -7.90531403 103.87762665 -8.01789856 104.87620544 C-8.310166 107.67281458 -8.310166 107.67281458 -8.25 111.4375 C-7.99476563 110.54998047 -7.99476563 110.54998047 -7.734375 109.64453125 C-6.27763105 104.89461614 -5.01372431 100.87861937 -1.25 97.4375 C2 96.625 2 96.625 4.75 96.4375 C3.91622561 102.41767496 2.30511503 107.77145257 0.0625 113.375 C-2.85975782 120.78965668 -4.98774475 128.35548286 -7 136.0625 C-7.29350342 137.16972412 -7.58700684 138.27694824 -7.8894043 139.41772461 C-11.07736949 151.90154209 -12.49247452 164.37629209 -13.20043945 177.21948242 C-13.31035469 179.21112742 -13.4295 181.20225617 -13.54882812 183.19335938 C-13.80919517 187.6068068 -14.03389262 192.02168579 -14.25 196.4375 C-14.29317352 197.30247101 -14.33634705 198.16744202 -14.38082886 199.05862427 C-15.02571789 212.31490403 -15.35127045 225.56245874 -15.49609375 238.83203125 C-15.50867816 239.95668132 -15.50867816 239.95668132 -15.5215168 241.10405159 C-15.59885644 248.07897252 -15.67027466 255.05393036 -15.72680664 262.02905273 C-15.75856464 265.8964525 -15.79974981 269.76365553 -15.84700203 273.63089561 C-15.86294249 275.08729268 -15.87530045 276.54373378 -15.88390923 278.00019264 C-15.89604999 280.01558252 -15.92123172 282.03088115 -15.94702148 284.04614258 C-15.95732895 285.1876326 -15.96763641 286.32912262 -15.97825623 287.50520325 C-16.24198702 290.35103465 -16.77119323 292.02492548 -18.25 294.4375 C-20.23 294.4375 -22.21 294.4375 -24.25 294.4375 C-33.96110655 265.01855958 -29.82446745 224.93263562 -27 194.5 C-26.89083252 193.32163574 -26.78166504 192.14327148 -26.66918945 190.92919922 C-26.06528553 185.22121811 -25.28831993 179.5764032 -24.3293457 173.91870117 C-21.86995611 159.40572126 -20.28558293 145.00908069 -19.21081543 130.33074951 C-18.73203282 123.83917161 -18.21550697 117.35070337 -17.68359375 110.86328125 C-17.62890553 110.19558716 -17.5742173 109.52789307 -17.51787186 108.83996582 C-15.70372415 86.8945708 -12.99940394 65.03776701 -10.3028717 43.186203 C-9.53500927 36.94352407 -8.84451176 30.69913508 -8.25 24.4375 C-14.10193186 36.25437973 -19.43714644 47.7910506 -23.25 60.4375 C-23.99203705 62.73175742 -24.74152425 65.02362459 -25.5 67.3125 C-25.81453125 68.27929688 -26.1290625 69.24609375 -26.453125 70.2421875 C-27.25 72.4375 -27.25 72.4375 -28.25 73.4375 C-29.91617115 73.47813832 -31.58388095 73.480221 -33.25 73.4375 C-35.66400169 69.35930018 -35.1720281 67.13149451 -34.1328125 62.65234375 C-30.16191003 48.19193343 -17.20166137 2.31560826 0 0 Z " fill="#0F1010" transform="translate(138.25,29.5625)"/>
<path d="M0 0 C2.1875 2.125 2.1875 2.125 3 5 C0.69670928 11.79290817 -3.36677896 17.66273266 -7.1875 23.6875 C-7.85861816 24.75444092 -8.52973633 25.82138184 -9.22119141 26.9206543 C-13.26648961 33.3313405 -17.37184983 39.68780852 -21.6796875 45.92578125 C-23.15342322 48.05584661 -23.15342322 48.05584661 -24 51 C-22.515 51.495 -22.515 51.495 -21 52 C-19.83203125 53.77734375 -19.83203125 53.77734375 -18.8125 55.9375 C-18.46832031 56.64777344 -18.12414062 57.35804688 -17.76953125 58.08984375 C-17 60 -17 60 -17 62 C-21.2742558 60.4169423 -23.26531794 57.49431596 -26 54 C-26.45375 54.66 -26.9075 55.32 -27.375 56 C-27.91125 56.66 -28.4475 57.32 -29 58 C-29.66 58 -30.32 58 -31 58 C-31.37898438 59.02673828 -31.37898438 59.02673828 -31.765625 60.07421875 C-33.19579748 63.46408961 -34.93030549 66.62220619 -36.75 69.8125 C-37.13486572 70.49119141 -37.51973145 71.16988281 -37.91625977 71.86914062 C-41.5567269 78.26518523 -45.24254074 84.63532157 -48.9375 91 C-49.53425537 92.03133057 -50.13101074 93.06266113 -50.74584961 94.12524414 C-53.42123851 98.71729694 -56.1217958 103.25949968 -59.0859375 107.671875 C-64.20992852 115.3111828 -67.6153469 121.44402456 -67 131 C-67.66 131 -68.32 131 -69 131 C-69.33 129.68 -69.66 128.36 -70 127 C-70.66 127.66 -71.32 128.32 -72 129 C-72 126.36 -72 123.72 -72 121 C-72.99 121 -73.98 121 -75 121 C-75.09796875 121.556875 -75.1959375 122.11375 -75.296875 122.6875 C-76.65773857 129.63259682 -78.98896297 136.77109179 -84 142 C-84.99 142 -85.98 142 -87 142 C-85.94017391 139.87053461 -84.87007152 137.74763891 -83.78125 135.6328125 C-80.17484756 128.57393943 -77.67639756 123.0900611 -78 115 C-82.8890761 117.25467102 -86.18830198 119.39563474 -88.25 124.5 C-88.86743869 126.32213017 -89.44762609 128.15710229 -90 130 C-90.35964844 131.1446875 -90.71929687 132.289375 -91.08984375 133.46875 C-91.79751966 135.74540131 -92.49131549 138.0264364 -93.16796875 140.3125 C-94 143 -94 143 -95 145 C-94.34 145.33 -93.68 145.66 -93 146 C-93 146.99 -93 147.98 -93 149 C-92.113125 148.814375 -91.22625 148.62875 -90.3125 148.4375 C-87.14821189 148.01957516 -85.05160358 148.19222258 -82 149 C-82.33 149.99 -82.66 150.98 -83 152 C-85.79173055 152.02690104 -88.58320348 152.04679053 -91.375 152.0625 C-92.1690625 152.07087891 -92.963125 152.07925781 -93.78125 152.08789062 C-99.7734375 152.11328125 -99.7734375 152.11328125 -102 151 C-104.3329866 150.95977609 -106.66706666 150.95679753 -109 151 C-109 150.34 -109 149.68 -109 149 C-108.39671875 148.87625 -107.7934375 148.7525 -107.171875 148.625 C-102.43556869 147.42895092 -102.43556869 147.42895092 -98.65234375 144.51171875 C-95.84022286 139.1948748 -94.57189401 133.16768222 -93.125 127.3671875 C-91.29839345 121.90005263 -88.54963621 117.98433933 -83.875 114.625 C-83.19179688 114.12226563 -82.50859375 113.61953125 -81.8046875 113.1015625 C-80 112 -80 112 -78 112 C-77.61714844 110.93265625 -77.61714844 110.93265625 -77.2265625 109.84375 C-75.89987443 106.76786173 -74.2759629 104.25677488 -72.375 101.5 C-65.06677614 90.69483031 -58.51685792 79.52160075 -52.12402344 68.15844727 C-51.38780762 66.85605103 -51.38780762 66.85605103 -50.63671875 65.52734375 C-49.98255981 64.36319946 -49.98255981 64.36319946 -49.31518555 63.17553711 C-48 61 -48 61 -46.42895508 58.93969727 C-44.77371056 56.85138721 -44.77371056 56.85138721 -43.5 53.4375 C-41.85751909 49.67348125 -40.38383784 48.08730116 -37.25 45.625 C-35.68559459 43.98198368 -35.68559459 43.98198368 -36.3125 41.3125 C-36.539375 40.549375 -36.76625 39.78625 -37 39 C-36.01 39 -35.02 39 -34 39 C-33.65710938 38.09121094 -33.31421875 37.18242187 -32.9609375 36.24609375 C-30.4934786 30.4939929 -26.9745626 25.32933154 -23.625 20.0625 C-22.965 19.01642578 -22.305 17.97035156 -21.625 16.89257812 C-20.34039959 14.8569215 -19.05180574 12.82377819 -17.75878906 10.79345703 C-16.65608723 9.04205304 -15.57163587 7.27887813 -14.51464844 5.49951172 C-10.65953762 -0.97909587 -7.11329346 -2.12073345 0 0 Z " fill="#0B0B0C" transform="translate(406,128)"/>
<path d="M0 0 C4.71878688 1.69164058 7.20582817 3.86048618 10 8 C11.7354912 13.2064736 11.66344383 18.14934089 9.8125 23.3125 C7.16047205 27.2448173 4.50305441 29.49898186 0 31 C-5.53506681 31.65118433 -8.81081518 30.57675685 -13.265625 27.46875 C-16.7172367 24.54576352 -17.8141789 21.80246465 -18.2734375 17.34765625 C-18.6010212 7.96112332 -18.6010212 7.96112332 -15 4 C-10.20448904 -0.2246168 -6.1407866 -0.90402962 0 0 Z " fill="#C6CAD0" transform="translate(320,305)"/>
<path d="M0 0 C4.58546703 4.45391674 6.23684238 7.34801582 6.34375 13.8515625 C6.28613328 18.21890975 6.19942579 21.16384166 3.09375 24.4765625 C-1.30142816 27.69254652 -5.13118258 27.97785606 -10.3671875 27.234375 C-14.97875082 25.85800072 -18.0303096 23.28504793 -20.90625 19.4765625 C-22.78649718 15.66838072 -23.38308088 12.4181904 -22.36328125 8.265625 C-20.09081638 2.92682107 -17.12236549 0.80518549 -11.90625 -1.5234375 C-7.65023753 -3.20004847 -3.64829925 -2.91564899 0 0 Z " fill="#0F0F10" transform="translate(281.90625,193.5234375)"/>
<path d="M0 0 C3.4622569 1.87049896 6.35851653 3.67355426 8.09375 7.24609375 C8.71121166 10.81364999 8.69195471 13.1613492 6.921875 16.37109375 C4.20222195 20.18421555 1.59341727 23.64621205 -2.90625 25.24609375 C-7.34330938 25.84496066 -11.80097346 26.33201702 -15.8828125 24.2265625 C-19.22022703 21.50566543 -21.70418073 18.76161324 -22.28125 14.43359375 C-21.65646888 9.12295424 -18.77156398 5.84227022 -14.84375 2.43359375 C-10.31464629 -0.93914305 -5.45830649 -2.15871548 0 0 Z " fill="#0F0F0F" transform="translate(315.90625,175.75390625)"/>
<path d="M0 0 C5.73331317 0.07045546 9.30380865 0.52617657 13.73046875 4.53125 C17.39170583 8.6742288 18.43796416 12.01259747 18.18359375 17.41796875 C17.43159587 20.9251313 15.52028402 22.42338957 12.73046875 24.53125 C11.96734375 25.129375 11.20421875 25.7275 10.41796875 26.34375 C6.80125151 27.94183436 3.58008922 28.19680324 -0.26953125 27.53125 C-4.73690189 25.38347565 -7.41234272 22.74853889 -9.640625 18.39453125 C-10.74322497 15.12782202 -10.23148264 12.77783595 -9.26953125 9.53125 C-7.39453125 6.84375 -7.39453125 6.84375 -5.26953125 4.53125 C-4.82996094 3.83386719 -4.39039063 3.13648438 -3.9375 2.41796875 C-2.26953125 0.53125 -2.26953125 0.53125 0 0 Z " fill="#0D0D0D" transform="translate(259.26953125,229.46875)"/>
<path d="M0 0 C2.21549553 7.32817753 -0.8287835 13.33124129 -4 20 C-5.53185009 22.53106228 -7.12775577 24.69981423 -9 27 C-8.01 27 -7.02 27 -6 27 C-2.55780803 20.2112325 0.82666636 13.31030406 3 6 C3.99 6 4.98 6 6 6 C6.33 7.98 6.66 9.96 7 12 C7.66 11.34 8.32 10.68 9 10 C9 11.98 9 13.96 9 16 C9.66 16 10.32 16 11 16 C10.04054417 24.45887586 6.39616945 29.38827714 -0.1015625 34.7265625 C-2 36 -2 36 -4 36 C-4 35.34 -4 34.68 -4 34 C-7.63 34 -11.26 34 -15 34 C-15 33.01 -15 32.02 -15 31 C-15.99 30.67 -16.98 30.34 -18 30 C-17.5875 29.13375 -17.175 28.2675 -16.75 27.375 C-14.65030766 22.55457956 -13.45764215 17.48556771 -12.16015625 12.40234375 C-10.53433577 7.63436517 -8.50021638 4.07158313 -4.375 1.125 C-2 0 -2 0 0 0 Z " fill="#111111" transform="translate(328,243)"/>
<path d="M0 0 C7.28527919 2.57055838 7.28527919 2.57055838 9 6 C10.48386405 18.92644453 10.48386405 18.92644453 7.49609375 23.1015625 C2.83924129 26.21828176 -1.5472679 26.86551303 -7 26 C-11.260153 23.87410833 -14.26638714 21.51716027 -16 17 C-16.52721431 13.27620211 -16.55688066 9.72172716 -16 6 C-11.4454549 0.0071775 -7.18103995 -0.85488571 0 0 Z " fill="#070707" transform="translate(270,269)"/>
<path d="M0 0 C1.61857274 1.43311128 3.21747703 2.88837992 4.8125 4.34765625 C5.8025 4.34765625 6.7925 4.34765625 7.8125 4.34765625 C7.4825 5.33765625 7.1525 6.32765625 6.8125 7.34765625 C5.3275 6.85265625 5.3275 6.85265625 3.8125 6.34765625 C4.8025 8.65765625 5.7925 10.96765625 6.8125 13.34765625 C4.8325 14.00765625 2.8525 14.66765625 0.8125 15.34765625 C1.4725 13.36765625 2.1325 11.38765625 2.8125 9.34765625 C-2.42805549 4.94255164 -7.96365161 2.13534403 -14.1875 -0.65234375 C-15.10917969 -1.07257813 -16.03085937 -1.4928125 -16.98046875 -1.92578125 C-33.76399935 -8.31303581 -53.7251287 -5.76560085 -70.1875 0.34765625 C-71.31542969 0.755 -72.44335938 1.16234375 -73.60546875 1.58203125 C-83.60540675 5.48568259 -92.35490098 11.33124822 -101.1875 17.34765625 C-101.8475 15.69765625 -102.5075 14.04765625 -103.1875 12.34765625 C-102.69121094 12.04472656 -102.19492187 11.74179688 -101.68359375 11.4296875 C-101.00425781 11.01074219 -100.32492187 10.59179688 -99.625 10.16015625 C-98.63306641 9.55107422 -98.63306641 9.55107422 -97.62109375 8.9296875 C-95.65869761 7.65397251 -93.81433506 6.32390947 -91.94140625 4.92578125 C-88.08113446 2.15471478 -84.03231378 0.18264668 -79.6875 -1.71484375 C-78.90648926 -2.05845947 -78.12547852 -2.4020752 -77.32080078 -2.75610352 C-54.24372907 -12.62320204 -21.49097172 -16.23335899 0 0 Z " fill="#121414" transform="translate(365.1875,160.65234375)"/>
<path d="M0 0 C3 1 3 1 4.31640625 3.44140625 C11.0107516 20.20874773 11.81244755 33.11377804 4.64453125 50.23828125 C-0.90154877 61.94006402 -9.43757572 71.24519194 -18.3984375 80.46875 C-29.01425453 91.61359446 -31.93412285 103.53743983 -32.875 118.5 C-34.00951015 133.16265038 -35.00311059 145.25881985 -45.66015625 156.15625 C-48 158 -48 158 -51 158 C-49.88779395 155.27003969 -48.7962339 153.80695843 -46.625 151.75 C-37.70284813 142.40298375 -37.19959459 128.60651287 -36.33764648 116.32299805 C-35.36212693 102.51228435 -33.43520037 90.17234898 -23 80 C-22.34 80 -21.68 80 -21 80 C-20.7525 79.443125 -20.505 78.88625 -20.25 78.3125 C-18.12526386 74.38173815 -15.65013796 71.51495196 -12.14453125 68.73828125 C-8.95874611 66.11032408 -6.63865685 63.10259072 -4.4375 59.625 C-4.05400391 59.02429688 -3.67050781 58.42359375 -3.27539062 57.8046875 C3.6703231 46.42829006 7.64527847 32.32527338 6 19 C4.75471726 14.66764597 3.04398657 10.52727862 1.3125 6.37109375 C0 3 0 3 0 0 Z " fill="#111111" transform="translate(389,191)"/>
<path d="M0 0 C1.32 0.33 2.64 0.66 4 1 C4 1.99 4 2.98 4 4 C4.66 4 5.32 4 6 4 C6.33 3.34 6.66 2.68 7 2 C8 5 8 5 7.27490234 7.03027344 C6.88254395 7.79887695 6.49018555 8.56748047 6.0859375 9.359375 C5.65684082 10.22054932 5.22774414 11.08172363 4.78564453 11.96899414 C4.32013184 12.88672607 3.85461914 13.80445801 3.375 14.75 C-0.87041005 23.37270633 -4.22305899 31.78945903 -7 41 C-7.74203705 43.29425742 -8.49152425 45.58612459 -9.25 47.875 C-9.56453125 48.84179688 -9.8790625 49.80859375 -10.203125 50.8046875 C-11 53 -11 53 -12 54 C-13.66617115 54.04063832 -15.33388095 54.042721 -17 54 C-19.41400169 49.92180018 -18.9220281 47.69399451 -17.8828125 43.21484375 C-13.74488583 28.14619927 -8.31425222 13.30795169 0 0 Z " fill="#1B1C1C" transform="translate(122,49)"/>
<path d="M0 0 C2.1875 2.125 2.1875 2.125 3 5 C1.16146891 10.0257215 -1.32737207 14.43266921 -4.1875 18.9375 C-4.55552734 19.52595703 -4.92355469 20.11441406 -5.30273438 20.72070312 C-6.19743118 22.14989413 -7.09808195 23.57535509 -8 25 C-10 22 -10 22 -10 18 C-10.99 18 -11.98 18 -13 18 C-13.66 18.66 -14.32 19.32 -15 20 C-15.99 18.68 -16.98 17.36 -18 16 C-18.33 16.66 -18.66 17.32 -19 18 C-19.66 18 -20.32 18 -21 18 C-19.47485854 13.79598313 -17.38970772 10.05039426 -15.0625 6.25 C-14.71509766 5.66089844 -14.36769531 5.07179687 -14.00976562 4.46484375 C-10.40994018 -1.43317535 -6.34681383 -1.89221779 0 0 Z " fill="#272829" transform="translate(406,128)"/>
<path d="M0 0 C4.80353138 2.70554633 7.71751789 6.53099975 9.875 11.5625 C11.0763087 17.54132098 10.08184253 22.60049091 7.08984375 27.87109375 C4.88452355 30.94152349 2.22105837 32.88947081 -1.125 34.5625 C-6.95744197 35.0539074 -12.30372553 35.39325678 -17.6875 32.9375 C-23.06895022 27.69403569 -25.23703214 23.06878031 -25.375 15.6875 C-25.30281507 11.21859631 -24.80216632 8.27598876 -22.125 4.5625 C-15.56822304 -1.14174095 -8.32646856 -3.51597521 0 0 Z M-20.125 6.5625 C-23.08995044 11.20758902 -22.59627844 16.24709728 -22.125 21.5625 C-20.58975709 26.74394482 -17.80361559 29.05861569 -13.2421875 31.6484375 C-8.78407819 33.57315628 -5.37185199 33.02701349 -0.9375 31.375 C3.10093343 28.77245401 5.35539779 26.12130664 6.875 21.5625 C7.64951656 15.01085175 6.72862245 10.9147534 2.875 5.5625 C-1.26282077 1.80084476 -5.33813489 1.15777538 -10.76953125 1.2109375 C-14.65625321 1.79104525 -17.44674975 3.74328921 -20.125 6.5625 Z " fill="#141516" transform="translate(324.125,303.4375)"/>
<path d="M0 0 C3.5625 1.5 3.5625 1.5 6 3 C3 5 3 5 -0.4375 6.3125 C-4.78604606 8.37233761 -6.87028577 10.74057154 -9 15 C-9.09657872 16.7895469 -9.12980468 18.58285534 -9.125 20.375 C-9.12757813 21.33148438 -9.13015625 22.28796875 -9.1328125 23.2734375 C-9.01551878 25.68140854 -8.68675951 27.69990068 -8 30 C-12.02587882 28.21072052 -14.72216331 26.83635653 -17 23 C-18.80393865 17.58818405 -18.92194895 11.40731114 -16.875 6.0625 C-11.8445359 0.52898949 -7.28300296 -1.12944966 0 0 Z " fill="#737474" transform="translate(320,305)"/>
<path d="M0 0 C2.97 0.495 2.97 0.495 6 1 C5.67 1.66 5.34 2.32 5 3 C4.34 3 3.68 3 3 3 C1.18470701 8.84469334 -0.51165481 14.72148874 -2.125 20.625 C-2.62386719 22.43871094 -2.62386719 22.43871094 -3.1328125 24.2890625 C-4.96097815 32.11229389 -5.19252956 39.68547138 -5.1875 47.6875 C-5.18814453 48.74517578 -5.18878906 49.80285156 -5.18945312 50.89257812 C-5.13849988 58.43829036 -4.61669043 65.60941518 -3 73 C-3.66 73 -4.32 73 -5 73 C-5.33 73.99 -5.66 74.98 -6 76 C-14.08304048 51.44585817 -10.33128244 23.25291558 0 0 Z " fill="#3E3F40" transform="translate(237,206)"/>
<path d="M0 0 C4.43936951 1.35647402 6.4156882 3.16808939 9 7 C11.15319123 11.09106333 11.61195173 14.41036204 11 19 C8.04452701 25.21595921 4.48529474 29.58175451 -2 32 C-5.11334048 32.10241252 -8.00280459 31.866806 -11 31 C-11.66 30.34 -12.32 29.68 -13 29 C-11.98679687 28.56300781 -11.98679687 28.56300781 -10.953125 28.1171875 C-5.26005484 25.50100786 -1.82937246 23.65874492 1 18 C2.74448199 12.76655404 2.67853621 7.12042565 1 1.875 C0.67 1.25625 0.34 0.6375 0 0 Z " fill="#C5C9CE" transform="translate(331,310)"/>
<path d="M0 0 C2.20943992 7.30814743 -0.68241134 13.4054794 -4 20 C-7.14258953 24.59246606 -10.79138008 28.76773432 -16 31 C-16.66 30.67 -17.32 30.34 -18 30 C-17.5875 29.13375 -17.175 28.2675 -16.75 27.375 C-14.65030766 22.55457956 -13.45764215 17.48556771 -12.16015625 12.40234375 C-10.53433577 7.63436517 -8.50021638 4.07158313 -4.375 1.125 C-2 0 -2 0 0 0 Z " fill="#717171" transform="translate(328,243)"/>
<path d="M0 0 C11.78485968 0.60956171 22.6249115 4.6627166 31.6875 12.25 C33.91536537 14.30172134 33.91536537 14.30172134 37 14 C36.67 14.99 36.34 15.98 36 17 C34.515 16.505 34.515 16.505 33 16 C33.99 18.31 34.98 20.62 36 23 C34.02 23.66 32.04 24.32 30 25 C30.66 23.02 31.32 21.04 32 19 C26.75944451 14.59489539 21.22384839 11.78768778 15 9 C14.07832031 8.57976562 13.15664063 8.15953125 12.20703125 7.7265625 C4.647535 4.84966919 -2.5991049 4.61776585 -10.625 4.5625 C-11.67389404 4.55234863 -12.72278809 4.54219727 -13.8034668 4.53173828 C-20.14935216 4.60246395 -25.60769756 5.45732344 -31.63818359 7.45678711 C-34.18072201 8.04156569 -35.56402907 7.84825874 -38 7 C-24.79447304 1.75196249 -11.00516783 2.1757844 3 2 C2.01 1.34 1.02 0.68 0 0 Z " fill="#494D50" transform="translate(336,151)"/>
<path d="M0 0 C0.66 0.33 1.32 0.66 2 1 C1.67 1.33 1.34 1.66 1 2 C1.99 2.66 2.98 3.32 4 4 C3.44054687 4.1959375 2.88109375 4.391875 2.3046875 4.59375 C-8.93316746 8.78536149 -19.19426471 15.15154996 -29 22 C-29.66 20.35 -30.32 18.7 -31 17 C-30.50371094 16.69707031 -30.00742187 16.39414063 -29.49609375 16.08203125 C-28.81675781 15.66308594 -28.13742187 15.24414062 -27.4375 14.8125 C-26.77621094 14.40644531 -26.11492187 14.00039062 -25.43359375 13.58203125 C-23.46639412 12.30319361 -21.61901624 10.96887168 -19.7421875 9.56640625 C-15.94855406 6.83876088 -11.9733978 4.95216681 -7.6875 3.125 C-6.97271484 2.8053125 -6.25792969 2.485625 -5.52148438 2.15625 C-3.70866842 1.37029775 -1.85628565 0.6769241 0 0 Z " fill="#4F5357" transform="translate(293,156)"/>
<path d="M0 0 C0.99 0.33 1.98 0.66 3 1 C5.85839938 7.93705113 4.79943291 18.73855298 2.5 25.6875 C-1.5326238 35.24368245 -8.17246244 45.12704019 -16 52 C-16.99 52 -17.98 52 -19 52 C-17.44319124 48.43921401 -15.27088852 45.81603661 -12.75 42.875 C-3.88591792 32.12979439 2.18177993 21.31565228 1 7 C0.73873149 4.6442289 0.3980139 2.33833167 0 0 Z " fill="#111111" transform="translate(383,205)"/>
<path d="M0 0 C1.43836751 0.11458693 2.87570966 0.24209116 4.3125 0.375 C5.51326172 0.47941406 5.51326172 0.47941406 6.73828125 0.5859375 C9 1 9 1 12 3 C11.01 3 10.02 3 9 3 C10.305239 5.61047801 11.35826574 5.68066423 14.0625 6.625 C15.16271484 7.01558594 15.16271484 7.01558594 16.28515625 7.4140625 C16.85105469 7.60742188 17.41695313 7.80078125 18 8 C14.24885568 9.25038144 13.47139252 8.51771605 9.875 7.0625 C3.02345159 4.84037619 -3.44622522 4.57889956 -10.625 4.5625 C-11.67316895 4.5529126 -12.72133789 4.5433252 -13.80126953 4.53344727 C-20.14823981 4.60065048 -25.60697288 5.45708317 -31.63818359 7.45678711 C-34.18072201 8.04156569 -35.56402907 7.84825874 -38 7 C-24.79447304 1.75196249 -11.00516783 2.1757844 3 2 C2.01 1.34 1.02 0.68 0 0 Z " fill="#BEBFC0" transform="translate(336,151)"/>
<path d="M0 0 C0.99 0 1.98 0 3 0 C2.47076422 9.52624408 -1.28803347 17.20408043 -8.28515625 23.7265625 C-10.45781086 25.33996888 -12.29877353 25.91814465 -15 26 C-14.06409496 24.8944811 -13.12620142 23.79064547 -12.1875 22.6875 C-11.40439453 21.76517578 -11.40439453 21.76517578 -10.60546875 20.82421875 C-9 19 -9 19 -7.5 17.62304688 C-5.86471014 15.85361214 -5.20642458 14.4622905 -4.39453125 12.20703125 C-4.13349609 11.49482422 -3.87246094 10.78261719 -3.60351562 10.04882812 C-3.34248047 9.31083984 -3.08144531 8.57285156 -2.8125 7.8125 C-2.53986328 7.06291016 -2.26722656 6.31332031 -1.98632812 5.54101562 C-1.31673904 3.69670884 -0.65736279 1.84869988 0 0 Z " fill="#6C6C6C" transform="translate(331,249)"/>
<path d="M0 0 C0.33 0 0.66 0 1 0 C1.03738281 0.72445313 1.07476562 1.44890625 1.11328125 2.1953125 C1.57381322 10.05754892 1.57381322 10.05754892 5 17 C10.00529343 20.63129131 13.88083081 21.57058462 20 22 C17.62839852 24.37160148 16.99378878 24.31983352 13.75 24.375 C9.10369729 24.2556728 6.54318775 23.13118917 3 20 C-1.18746971 15.24665601 -2.30848861 10.23146999 -2 4 C-1.0078125 1.6953125 -1.0078125 1.6953125 0 0 Z " fill="#0F0F10" transform="translate(301,314)"/>
<path d="M0 0 C2.97 0.495 2.97 0.495 6 1 C5.67 1.66 5.34 2.32 5 3 C4.34 3 3.68 3 3 3 C1.16597696 8.96668828 -0.53889252 14.93078433 -2 21 C-2.66 21 -3.32 21 -4 21 C-4 21.99 -4 22.98 -4 24 C-4.66 24 -5.32 24 -6 24 C-4.90725144 15.62226107 -3.66967601 7.67295894 0 0 Z " fill="#393C42" transform="translate(237,206)"/>
<path d="M0 0 C0.99 0.33 1.98 0.66 3 1 C3.51245852 7.94665991 3.10442499 13.21102273 -1 19 C-4.44916647 22.53993401 -7.10494044 23.54464562 -12 24 C-11.505 22.515 -11.505 22.515 -11 21 C-9 20 -7 19 -5 18 C-1.47016632 14.10501111 -0.85956324 10.43755365 -0.4375 5.3125 C-0.35371094 4.31863281 -0.26992188 3.32476562 -0.18359375 2.30078125 C-0.12300781 1.54152344 -0.06242187 0.78226562 0 0 Z " fill="#1B1F23" transform="translate(331,314)"/>
<path d="M0 0 C3 1 3 1 4.31640625 3.44140625 C8.49304604 13.9026451 10.33952347 21.68255088 10 33 C9.67 33 9.34 33 9 33 C8.96261719 32.26394531 8.92523438 31.52789062 8.88671875 30.76953125 C8.78810547 29.30580078 8.78810547 29.30580078 8.6875 27.8125 C8.62949219 26.84957031 8.57148438 25.88664062 8.51171875 24.89453125 C7.93585809 21.63718204 6.75828094 19.77782468 5 17 C4.23657976 15.02037235 3.52893389 13.01844162 2.875 11 C2.37613281 9.4840625 2.37613281 9.4840625 1.8671875 7.9375 C1.08840693 5.29946852 0.48731043 2.70507015 0 0 Z " fill="#212121" transform="translate(389,191)"/>
<path d="M0 0 C2 1.1875 2 1.1875 4 3 C4.25 5.6875 4.25 5.6875 4 8 C3.071875 7.835 2.14375 7.67 1.1875 7.5 C-2.57485245 6.90982707 -5.36490874 6.9972162 -9 8 C-9.33 7.34 -9.66 6.68 -10 6 C-9.525625 5.54625 -9.05125 5.0925 -8.5625 4.625 C-6.90972192 3.06741796 -6.90972192 3.06741796 -6 1 C-4.7934375 1.0309375 -4.7934375 1.0309375 -3.5625 1.0625 C-1.06645115 1.29633621 -1.06645115 1.29633621 0 0 Z " fill="#050606" transform="translate(403,128)"/>
<path d="M0 0 C3.29734841 0.38046328 4.42206045 1.35315262 7.0625 3.5625 C9.7485962 6.31928623 9.7485962 6.31928623 13 6 C12.67 6.99 12.34 7.98 12 9 C11.01 8.67 10.02 8.34 9 8 C9.99 10.31 10.98 12.62 12 15 C10.02 15.66 8.04 16.32 6 17 C6.66 15.02 7.32 13.04 8 11 C7.278125 10.4225 6.55625 9.845 5.8125 9.25 C3.20833333 7.16666667 0.60416667 5.08333333 -2 3 C-0.68 3 0.64 3 2 3 C2 3.66 2 4.32 2 5 C2.66 5 3.32 5 4 5 C2.68 3.35 1.36 1.7 0 0 Z " fill="#545457" transform="translate(360,159)"/>
<path d="M0 0 C1.60080151 4.00200378 0.29279692 7.04556236 -1 11 C-0.34 11 0.32 11 1 11 C1.33 10.01 1.66 9.02 2 8 C1.13329546 14.35583327 0.06965872 20.67551301 -1 27 C-1.33 27 -1.66 27 -2 27 C-2 24.36 -2 21.72 -2 19 C-2.33 20.98 -2.66 22.96 -3 25 C-3.33 25 -3.66 25 -4 25 C-4.51105763 16.48237279 -2.69008827 8.0702648 0 0 Z " fill="#3A3E42" transform="translate(232,219)"/>
<path d="M0 0 C0.33 0 0.66 0 1 0 C0.84023273 7.21857585 -0.14030642 11.54766087 -5 17 C-5.66 17 -6.32 17 -7 17 C-7 17.66 -7 18.32 -7 19 C-9.35438733 20.42944945 -10.48032433 21.08661261 -13.25 20.625 C-14.11625 20.315625 -14.11625 20.315625 -15 20 C-14.0925 19.443125 -13.185 18.88625 -12.25 18.3125 C-5.84242239 13.75326208 -2.44852963 7.34558889 0 0 Z " fill="#626262" transform="translate(335,256)"/>
<path d="M0 0 C0.33 1.32 0.66 2.64 1 4 C-0.62384142 5.14747465 -2.24911056 6.2929291 -3.875 7.4375 C-5.23238281 8.39462891 -5.23238281 8.39462891 -6.6171875 9.37109375 C-9 11 -9 11 -11 12 C-11.66 10.35 -12.32 8.7 -13 7 C-4.738041 1.62870159 -4.738041 1.62870159 0 0 Z " fill="#50525C" transform="translate(275,166)"/>
<path d="M0 0 C0.66 0.99 1.32 1.98 2 3 C0.72942818 3.47985967 -0.54146848 3.9588593 -1.8125 4.4375 C-2.87404297 4.83775391 -2.87404297 4.83775391 -3.95703125 5.24609375 C-8.49877662 6.92211068 -12.39609796 7.1169002 -17.1875 7.0625 C-17.93708984 7.05798828 -18.68667969 7.05347656 -19.45898438 7.04882812 C-21.30602383 7.03706354 -23.15302213 7.01912865 -25 7 C-25 6.67 -25 6.34 -25 6 C-20.71 6 -16.42 6 -12 6 C-11.67 5.01 -11.34 4.02 -11 3 C-9.2578125 2.3046875 -9.2578125 2.3046875 -7.125 1.875 C-4.656604 1.35581708 -2.40502333 0.80167444 0 0 Z " fill="#202020" transform="translate(337,347)"/>
<path d="M0 0 C0 0.33 0 0.66 0 1 C-4.455 1.495 -4.455 1.495 -9 2 C-9.99 4.97 -10.98 7.94 -12 11 C-14.31 11.33 -16.62 11.66 -19 12 C-17.62523555 6.80644539 -14.25658407 3.99572509 -10 1 C-6.52674819 -0.1577506 -3.63932552 -0.06866652 0 0 Z " fill="#585859" transform="translate(314,175)"/>
<path d="M0 0 C2.72943537 -0.05416741 5.45778564 -0.09375225 8.1875 -0.125 C9.34088867 -0.15013672 9.34088867 -0.15013672 10.51757812 -0.17578125 C14.8149434 -0.21266851 18.07901831 0.0041496 22 2 C21.67 2.66 21.34 3.32 21 4 C14.4 4 7.8 4 1 4 C1 3.67 1 3.34 1 3 C6.445 2.505 6.445 2.505 12 2 C8.04 1.67 4.08 1.34 0 1 C0 0.67 0 0.34 0 0 Z " fill="#6A6C6D" transform="translate(318,150)"/>
<path d="M0 0 C0.5775 0.165 1.155 0.33 1.75 0.5 C4.26664369 1.14462031 4.26664369 1.14462031 8 1 C8.67154933 2.28913487 9.33708859 3.58140204 10 4.875 C10.37125 5.59429687 10.7425 6.31359375 11.125 7.0546875 C12 9 12 9 12 11 C7.7257442 9.4169423 5.73468206 6.49431596 3 3 C2.01 3.66 1.02 4.32 0 5 C0 3.35 0 1.7 0 0 Z " fill="#585B61" transform="translate(377,179)"/>
<path d="M0 0 C1.66666667 1.66666667 3.33333333 3.33333333 5 5 C5.8971875 5.804375 5.8971875 5.804375 6.8125 6.625 C8 8 8 8 8 11 C7.34 11 6.68 11 6 11 C5.34 12.32 4.68 13.64 4 15 C3.3299166 12.87607494 2.66403203 10.75082476 2 8.625 C1.62875 7.44164062 1.2575 6.25828125 0.875 5.0390625 C0 2 0 2 0 0 Z " fill="#82858A" transform="translate(243,304)"/>
<path d="M0 0 C0.765625 1.671875 0.765625 1.671875 1 4 C-0.765625 6.578125 -0.765625 6.578125 -3.25 9.25 C-4.05953125 10.14203125 -4.8690625 11.0340625 -5.703125 11.953125 C-8 14 -8 14 -11 14 C-9.43528652 10.15933963 -6.93965873 7.86966685 -4 5 C-2.64444707 3.35135455 -1.30368347 1.68996005 0 0 Z " fill="#0A0B0A" transform="translate(349,335)"/>
<path d="M0 0 C0.66 0.33 1.32 0.66 2 1 C2 1.66 2 2.32 2 3 C3.32 2.67 4.64 2.34 6 2 C6.33 3.65 6.66 5.3 7 7 C4.3333581 8.33332095 2.83319697 7.67102033 0 7 C-1.125 2.25 -1.125 2.25 0 0 Z M3 8 C3.66 8 4.32 8 5 8 C4.67 8.66 4.34 9.32 4 10 C3.67 9.34 3.34 8.68 3 8 Z " fill="#777576" transform="translate(263,335)"/>
<path d="M0 0 C0.33 0.99 0.66 1.98 1 3 C-3.85465116 9.79651163 -3.85465116 9.79651163 -8 11 C-10.25 10.625 -10.25 10.625 -12 10 C-10.50415516 7.00831032 -7.93920694 6.46960347 -5 5 C-3.98198643 4.01834406 -2.9753197 3.02408568 -2 2 C-1.34 2 -0.68 2 0 2 C0 1.34 0 0.68 0 0 Z " fill="#1A1D20" transform="translate(331,327)"/>
<path d="M0 0 C0.66 0 1.32 0 2 0 C3.70701221 5.89695128 1.95193635 10.41988817 0 16 C-0.99 15.34 -1.98 14.68 -3 14 C-2.01 9.38 -1.02 4.76 0 0 Z " fill="#171717" transform="translate(351,322)"/>
<path d="M0 0 C1.89492188 0.01353516 1.89492188 0.01353516 3.828125 0.02734375 C4.79234375 0.03894531 5.7565625 0.05054688 6.75 0.0625 C6.42 0.7225 6.09 1.3825 5.75 2.0625 C-0.19 2.3925 -6.13 2.7225 -12.25 3.0625 C-11.25 1.0625 -11.25 1.0625 -9.640625 0.44140625 C-6.40648557 -0.07119428 -3.27272949 -0.03030305 0 0 Z " fill="#090B0C" transform="translate(324.25,150.9375)"/>
<path d="M0 0 C1.37562854 1.28965176 2.70766393 2.62689293 4 4 C4 4.66 4 5.32 4 6 C2.54077307 5.88590407 1.08259402 5.75834456 -0.375 5.625 C-1.59316406 5.52058594 -1.59316406 5.52058594 -2.8359375 5.4140625 C-5 5 -5 5 -7 3 C-4.69 2.01 -2.38 1.02 0 0 Z " fill="#B5B9BD" transform="translate(325,336)"/>
<path d="M0 0 C1.32 0.33 2.64 0.66 4 1 C3.75 3.875 3.75 3.875 3 7 C1.0625 8.4375 1.0625 8.4375 -1 9 C-1.66 8.67 -2.32 8.34 -3 8 C-2.37240135 5.07120629 -1.41377341 2.63904371 0 0 Z " fill="#838383" transform="translate(322,191)"/>
<path d="M0 0 C0.66 0.33 1.32 0.66 2 1 C2 1.66 2 2.32 2 3 C-2.29 3 -6.58 3 -11 3 C-11 2.34 -11 1.68 -11 1 C-7.10835652 -0.29721449 -4.10570774 -0.13033993 0 0 Z " fill="#0E0F0F" transform="translate(320,302)"/>
<path d="M0 0 C0.99 0.33 1.98 0.66 3 1 C0.69 4.63 -1.62 8.26 -4 12 C-4.66 11.01 -5.32 10.02 -6 9 C-5.34 8.01 -4.68 7.02 -4 6 C-4.33 5.01 -4.66 4.02 -5 3 C-3.35 2.67 -1.7 2.34 0 2 C0 1.34 0 0.68 0 0 Z " fill="#484B4D" transform="translate(390,160)"/>
<path d="M0 0 C2.97 0.33 5.94 0.66 9 1 C9 1.66 9 2.32 9 3 C9.66 3 10.32 3 11 3 C11 3.66 11 4.32 11 5 C6.94393835 4.53199289 3.53411321 4.12046792 0 2 C0 1.34 0 0.68 0 0 Z " fill="#303134" transform="translate(345,154)"/>
<path d="M0 0 C5.28 0.33 10.56 0.66 16 1 C16 1.66 16 2.32 16 3 C11.05 3 6.1 3 1 3 C0.67 2.01 0.34 1.02 0 0 Z " fill="#0A0A0A" transform="translate(309,350)"/>
<path d="M0 0 C3.42436208 2.9836935 3.57781494 5.5248384 4 10 C3.34 10 2.68 10 2 10 C1.67 10.99 1.34 11.98 1 13 C-0.32229189 10.35541621 -0.09677194 8.32238699 -0.0625 5.375 C-0.05347656 4.37210937 -0.04445312 3.36921875 -0.03515625 2.3359375 C-0.02355469 1.56507813 -0.01195312 0.79421875 0 0 Z " fill="#424242" transform="translate(230,269)"/>
<path d="M0 0 C4.24822374 0.47202486 6.19989709 2.96655518 9 6 C8.01 6.495 8.01 6.495 7 7 C6.67 7.66 6.34 8.32 6 9 C3.36 7.35 0.72 5.7 -2 4 C-0.68 3.67 0.64 3.34 2 3 C2 3.66 2 4.32 2 5 C2.66 5 3.32 5 4 5 C2.68 3.35 1.36 1.7 0 0 Z " fill="#777B7F" transform="translate(360,159)"/>
<path d="M0 0 C0.66 0.99 1.32 1.98 2 3 C1.34 3.66 0.68 4.32 0 5 C-0.33 5 -0.66 5 -1 5 C-1.12375 6.134375 -1.2475 7.26875 -1.375 8.4375 C-1.58125 9.613125 -1.7875 10.78875 -2 12 C-2.99 12.495 -2.99 12.495 -4 13 C-4 12.34 -4 11.68 -4 11 C-4.66 11 -5.32 11 -6 11 C-4.54955729 6.89041233 -2.48889248 3.56741255 0 0 Z " fill="#595B5D" transform="translate(384,146)"/>
<path d="M0 0 C0.99 0 1.98 0 3 0 C3 2.31 3 4.62 3 7 C0 7 0 7 -3 5 C-2.67 4.01 -2.34 3.02 -2 2 C-1.34 2 -0.68 2 0 2 C0 1.34 0 0.68 0 0 Z " fill="#848384" transform="translate(371,339)"/>
<path d="M0 0 C-1.77945087 4.04420651 -4.39529673 7.46078487 -7 11 C-7.66 10.01 -8.32 9.02 -9 8 C-8.21366078 6.85050412 -7.42073742 5.70551011 -6.625 4.5625 C-6.18414062 3.92441406 -5.74328125 3.28632813 -5.2890625 2.62890625 C-3.63708041 0.54140161 -2.66927652 0 0 0 Z " fill="#0E0E0E" transform="translate(370,270)"/>
<path d="M0 0 C0.99 0.66 1.98 1.32 3 2 C2.34 2.433125 1.68 2.86625 1 3.3125 C0.34 3.869375 -0.32 4.42625 -1 5 C-1 5.99 -1 6.98 -1 8 C-2.32 8 -3.64 8 -5 8 C-5.33 6.68 -5.66 5.36 -6 4 C-4.02 2.68 -2.04 1.36 0 0 Z " fill="#1A1A1A" transform="translate(318,269)"/>
<path d="M0 0 C1.81618856 1.11903546 3.62785526 2.24541284 5.4375 3.375 C6.44683594 4.00148437 7.45617187 4.62796875 8.49609375 5.2734375 C11 7 11 7 12 9 C11.236875 8.835 10.47375 8.67 9.6875 8.5 C6.96403764 7.90854604 6.96403764 7.90854604 4 8 C0 2.74285714 0 2.74285714 0 0 Z " fill="#A2A2A5" transform="translate(390,189)"/>
<path d="M0 0 C1.98 1.65 3.96 3.3 6 5 C3.42786866 6.61949011 2.32330841 7.04408751 -0.75 6.625 C-1.4925 6.41875 -2.235 6.2125 -3 6 C-2.67 4.68 -2.34 3.36 -2 2 C-1.34 2 -0.68 2 0 2 C0 1.34 0 0.68 0 0 Z " fill="#6C6D6D" transform="translate(251,313)"/>
<path d="M0 0 C-0.9590625 0.433125 -0.9590625 0.433125 -1.9375 0.875 C-4.15206079 1.82823451 -4.15206079 1.82823451 -5 4 C-8.96 4 -12.92 4 -17 4 C-11.6013038 0.4008692 -6.3999927 -0.26122419 0 0 Z " fill="#717274" transform="translate(317,151)"/>
<path d="M0 0 C-0.33 0.99 -0.66 1.98 -1 3 C-2.65 3 -4.3 3 -6 3 C-6.268125 3.639375 -6.53625 4.27875 -6.8125 4.9375 C-8 7 -8 7 -11 8 C-9.54205607 2.41121495 -9.54205607 2.41121495 -7.1875 0.625 C-4.69940916 -0.0858831 -2.57533152 -0.14307397 0 0 Z " fill="#656666" transform="translate(403,127)"/>
<path d="M0 0 C2.0625 1.6875 2.0625 1.6875 4 4 C3.75 6.75 3.75 6.75 3 9 C2.01 8.67 1.02 8.34 0 8 C-0.625 6.125 -0.625 6.125 -1 4 C-1.33 3.01 -1.66 2.02 -2 1 C-1.34 0.67 -0.68 0.34 0 0 Z " fill="#030405" transform="translate(297,186)"/>
<path d="M0 0 C0.8353125 0.7734375 0.8353125 0.7734375 1.6875 1.5625 C1.3575 2.5525 1.0275 3.5425 0.6875 4.5625 C0.0275 4.5625 -0.6325 4.5625 -1.3125 4.5625 C-1.3125 3.9025 -1.3125 3.2425 -1.3125 2.5625 C-2.6325 2.8925 -3.9525 3.2225 -5.3125 3.5625 C-5.9725 2.2425 -6.6325 0.9225 -7.3125 -0.4375 C-2.88173077 -1.79134615 -2.88173077 -1.79134615 0 0 Z " fill="#0A0B0D" transform="translate(405.3125,129.4375)"/>
<path d="M0 0 C0.99 0.99 1.98 1.98 3 3 C0.60490662 5.89932357 -1.31245243 6.50168276 -5 7 C-4.67 6.01 -4.34 5.02 -4 4 C-3.34 4 -2.68 4 -2 4 C-2.33 3.01 -2.66 2.02 -3 1 C-2.01 0.67 -1.02 0.34 0 0 Z " fill="#C0C4C8" transform="translate(323,329)"/>
<path d="M0 0 C1.60080151 4.00200378 0.29279692 7.04556236 -1 11 C-0.34 11 0.32 11 1 11 C1.33 10.01 1.66 9.02 2 8 C1.67 10.31 1.34 12.62 1 15 C0.34 14.34 -0.32 13.68 -1 13 C-1.66 13.66 -2.32 14.32 -3 15 C-2.5547115 9.72684667 -1.91626837 4.98229776 0 0 Z " fill="#7B7E82" transform="translate(232,219)"/>
<path d="M0 0 C1.98 0.66 3.96 1.32 6 2 C6 3.32 6 4.64 6 6 C5.01 6 4.02 6 3 6 C2.67 6.99 2.34 7.98 2 9 C1.34 8.34 0.68 7.68 0 7 C0.66 7 1.32 7 2 7 C2 6.34 2 5.68 2 5 C1.34 5 0.68 5 0 5 C0 3.35 0 1.7 0 0 Z " fill="#040404" transform="translate(266,208)"/>
<path d="M0 0 C3 0.125 3 0.125 4 1.125 C4.07205511 2.81108966 4.08386068 4.50000659 4.0625 6.1875 C4.05347656 7.10660156 4.04445312 8.02570312 4.03515625 8.97265625 C4.02355469 9.68292969 4.01195312 10.39320312 4 11.125 C3.67 11.125 3.34 11.125 3 11.125 C2.67 8.155 2.34 5.185 2 2.125 C-1.10380501 2.90095125 -3.25002779 3.6518006 -6 5.125 C-3.59259259 0.14969136 -3.59259259 0.14969136 0 0 Z " fill="#5C5D62" transform="translate(138,29.875)"/>
<path d="M0 0 C1.18359375 2.05078125 1.18359375 2.05078125 2 4 C0.53984709 3.71758359 -0.91809793 3.42373386 -2.375 3.125 C-3.18710937 2.96257812 -3.99921875 2.80015625 -4.8359375 2.6328125 C-7 2 -7 2 -9 0 C-5.44712603 -1.18429132 -3.58589143 -0.99184231 0 0 Z " fill="#1A1A1A" transform="translate(308,349)"/>
<path d="M0 0 C0.33 0 0.66 0 1 0 C0.88601335 1.62580966 0.75844341 3.25067157 0.625 4.875 C0.55539062 5.77992188 0.48578125 6.68484375 0.4140625 7.6171875 C0 10 0 10 -2 12 C-2.99 11.67 -3.98 11.34 -5 11 C-4.72285156 10.45730469 -4.44570313 9.91460937 -4.16015625 9.35546875 C-3.79792969 8.64003906 -3.43570312 7.92460937 -3.0625 7.1875 C-2.52302734 6.12595703 -2.52302734 6.12595703 -1.97265625 5.04296875 C-0.89269484 2.88189715 -0.89269484 2.88189715 0 0 Z " fill="#696969" transform="translate(335,256)"/>
<path d="M0 0 C3 1 3 1 4.1875 2.75 C5.10819096 5.29960574 5.14948718 7.30923081 5 10 C4.34 10 3.68 10 3 10 C0 3.375 0 3.375 0 0 Z " fill="#0F0F10" transform="translate(389,191)"/>
<path d="M0 0 C0 0.33 0 0.66 0 1 C-2.97 1 -5.94 1 -9 1 C-8.67 2.32 -8.34 3.64 -8 5 C-9.98 4.34 -11.96 3.68 -14 3 C-9.09727091 -1.02724175 -6.19287507 -1.26672445 0 0 Z " fill="#666769" transform="translate(280,192)"/>
<path d="M0 0 C0.66 0.66 1.32 1.32 2 2 C-0.97 5.3 -3.94 8.6 -7 12 C-7.66 11.34 -8.32 10.68 -9 10 C-8.43410156 9.44570312 -7.86820313 8.89140625 -7.28515625 8.3203125 C-6.55167969 7.59585938 -5.81820312 6.87140625 -5.0625 6.125 C-4.33160156 5.40570313 -3.60070312 4.68640625 -2.84765625 3.9453125 C-0.94332001 2.12972808 -0.94332001 2.12972808 0 0 Z " fill="#464646" transform="translate(173,198)"/>
<path d="M0 0 C1.98 0.99 1.98 0.99 4 2 C3.979375 2.7425 3.95875 3.485 3.9375 4.25 C3.99328688 6.70462279 4.3069904 8.66109261 5 11 C0.07692308 6.81538462 0.07692308 6.81538462 -0.3125 2.6875 C-0.209375 1.800625 -0.10625 0.91375 0 0 Z " fill="#4D5153" transform="translate(294,187)"/>
<path d="M0 0 C0.33 0 0.66 0 1 0 C1 1.98 1 3.96 1 6 C1.66 6 2.32 6 3 6 C2.67 7.98 2.34 9.96 2 12 C1.01 12 0.02 12 -1 12 C-1.02698189 10.37509046 -1.04638757 8.75005367 -1.0625 7.125 C-1.07410156 6.22007812 -1.08570313 5.31515625 -1.09765625 4.3828125 C-1 2 -1 2 0 0 Z " fill="#1C1C1C" transform="translate(336,253)"/>
<path d="M0 0 C2.475 0.495 2.475 0.495 5 1 C5.33 2.65 5.66 4.3 6 6 C4.35 6 2.7 6 1 6 C0.67 4.02 0.34 2.04 0 0 Z " fill="#030403" transform="translate(271,193)"/>
<path d="M0 0 C0.33 1.32 0.66 2.64 1 4 C-1.31 4.66 -3.62 5.32 -6 6 C-5.8125 4.125 -5.8125 4.125 -5 2 C-2.4375 0.75 -2.4375 0.75 0 0 Z " fill="#373A3C" transform="translate(275,166)"/>
<path d="M0 0 C0.33 0 0.66 0 1 0 C1.06058594 0.60328125 1.12117188 1.2065625 1.18359375 1.828125 C1.26738281 2.62734375 1.35117187 3.4265625 1.4375 4.25 C1.55931641 5.43335938 1.55931641 5.43335938 1.68359375 6.640625 C1.97634993 8.82364639 2.42064419 10.8773182 3 13 C0.525 12.01 0.525 12.01 -2 11 C-1.34 7.37 -0.68 3.74 0 0 Z " fill="#818184" transform="translate(309,322)"/>
<path d="M0 0 C0.33 0.66 0.66 1.32 1 2 C-0.3125 4.625 -0.3125 4.625 -2 7 C-2.66 7 -3.32 7 -4 7 C-4.33 7.66 -4.66 8.32 -5 9 C-7.0625 9.625 -7.0625 9.625 -9 10 C-8.34 9.01 -7.68 8.02 -7 7 C-6.34 7 -5.68 7 -5 7 C-4.67 6.01 -4.34 5.02 -4 4 C-2.70644173 2.62804426 -1.37701298 1.28817344 0 0 Z " fill="#535353" transform="translate(163,209)"/>
<path d="M0 0 C0.66 0.33 1.32 0.66 2 1 C1.67 1.33 1.34 1.66 1 2 C1.99 2.66 2.98 3.32 4 4 C2.1875 5.0625 2.1875 5.0625 0 6 C-0.99 5.67 -1.98 5.34 -3 5 C-2.67 4.34 -2.34 3.68 -2 3 C-2.99 2.67 -3.98 2.34 -5 2 C-2.625 0.9375 -2.625 0.9375 0 0 Z " fill="#818387" transform="translate(293,156)"/>
<path d="M0 0 C0.66 0 1.32 0 2 0 C2 0.66 2 1.32 2 2 C2.66 2.33 3.32 2.66 4 3 C2.35 4.65 0.7 6.3 -1 8 C-1.93065133 5.39417629 -2.14917407 4.35801776 -1.0625 1.75 C-0.711875 1.1725 -0.36125 0.595 0 0 Z " fill="#929292" transform="translate(397,313)"/>
<path d="M0 0 C1.32 0.33 2.64 0.66 4 1 C2.68 3.31 1.36 5.62 0 8 C-0.66 7.01 -1.32 6.02 -2 5 C-1.125 2.3125 -1.125 2.3125 0 0 Z " fill="#444446" transform="translate(398,145)"/>
<path d="M0 0 C1.65 0 3.3 0 5 0 C4.34 2.31 3.68 4.62 3 7 C2.34 7 1.68 7 1 7 C0.67 4.69 0.34 2.38 0 0 Z " fill="#6F706D" transform="translate(345,330)"/>
<path d="M0 0 C3.77545388 1.09068668 6.47043472 1.9083091 9 5 C7.68 5.33 6.36 5.66 5 6 C4.731875 5.360625 4.46375 4.72125 4.1875 4.0625 C3.11332248 1.66868314 3.11332248 1.66868314 0 1 C0 0.67 0 0.34 0 0 Z " fill="#1C1C1C" transform="translate(259,321)"/>
<path d="M0 0 C1.32 0.33 2.64 0.66 4 1 C3.34 2.65 2.68 4.3 2 6 C0.68 5.34 -0.64 4.68 -2 4 C-1.34 2.68 -0.68 1.36 0 0 Z " fill="#6F6F6F" transform="translate(362,281)"/>
<path d="M0 0 C0.66 0 1.32 0 2 0 C1.67 3.63 1.34 7.26 1 11 C0.67 11 0.34 11 0 11 C-0.144375 10.236875 -0.28875 9.47375 -0.4375 8.6875 C-0.9632594 5.91827092 -0.9632594 5.91827092 -2 3 C-1.34 2.01 -0.68 1.02 0 0 Z " fill="#606060" transform="translate(253,273)"/>
<path d="M0 0 C0.99 0.33 1.98 0.66 3 1 C2.34 2.98 1.68 4.96 1 7 C0.01 6.34 -0.98 5.68 -2 5 C-2 4.34 -2 3.68 -2 3 C-1.34 3 -0.68 3 0 3 C0 2.01 0 1.02 0 0 Z " fill="#6E6E6E" transform="translate(379,229)"/>
<path d="M0 0 C0.99 0 1.98 0 3 0 C2.4409112 3.24271506 1.5867822 4.93057424 -1 7 C-1.66 7 -2.32 7 -3 7 C-2.690625 6.401875 -2.38125 5.80375 -2.0625 5.1875 C-0.89790296 2.91043228 -0.89790296 2.91043228 0 0 Z " fill="#050405" transform="translate(364,182)"/>
<path d="M0 0 C0.99 1.32 1.98 2.64 3 4 C2.401875 4.268125 1.80375 4.53625 1.1875 4.8125 C-0.97224808 5.98493467 -2.35790256 7.19369282 -4 9 C-4 5.00095031 -2.27413033 3.19799578 0 0 Z " fill="#313136" transform="translate(158,84)"/>
<path d="M0 0 C0 0.66 0 1.32 0 2 C-3.375 2.125 -3.375 2.125 -7 2 C-7.66 1.34 -8.32 0.68 -9 0 C-5.93109813 -1.53445094 -3.29905734 -0.54984289 0 0 Z " fill="#C2C5C8" transform="translate(327,339)"/>
<path d="M0 0 C2.31 0.33 4.62 0.66 7 1 C7 2.32 7 3.64 7 5 C3.34683329 3.75023244 2.21934164 3.32901247 0 0 Z " fill="#363636" transform="translate(264,215)"/>
<path d="M0 0 C0 0.99 0 1.98 0 3 C-1.98 3.99 -1.98 3.99 -4 5 C-4 4.34 -4 3.68 -4 3 C-2 1.375 -2 1.375 0 0 Z M-6 4 C-5.34 4.33 -4.68 4.66 -4 5 C-4.33 5.99 -4.66 6.98 -5 8 C-5.99 7.34 -6.98 6.68 -8 6 C-7.34 6 -6.68 6 -6 6 C-6 5.34 -6 4.68 -6 4 Z " fill="#6E6E6E" transform="translate(391,198)"/>
<path d="M0 0 C2.99324263 1.0975223 3.84610901 1.67682892 5.25 4.625 C5.4975 5.40875 5.745 6.1925 6 7 C3.00675737 5.9024777 2.15389099 5.32317108 0.75 2.375 C0.5025 1.59125 0.255 0.8075 0 0 Z " fill="#101315" transform="translate(383,183)"/>
<path d="M0 0 C0.99 0 1.98 0 3 0 C3 0.66 3 1.32 3 2 C3.66 2.33 4.32 2.66 5 3 C2.29120665 4.35439668 -0.00933268 4.06501451 -3 4 C-1.6875 2 -1.6875 2 0 0 Z " fill="#343436" transform="translate(295,155)"/>
<path d="M0 0 C0.66 0.99 1.32 1.98 2 3 C0.02 3.66 -1.96 4.32 -4 5 C-3.6875 3.0625 -3.6875 3.0625 -3 1 C-2.01 0.67 -1.02 0.34 0 0 Z " fill="#171717" transform="translate(337,347)"/>
<path d="M0 0 C0.33 0.99 0.66 1.98 1 3 C-0.3125 5.1875 -0.3125 5.1875 -2 7 C-2.66 7 -3.32 7 -4 7 C-3.6875 5.0625 -3.6875 5.0625 -3 3 C-2.01 2.67 -1.02 2.34 0 2 C0 1.34 0 0.68 0 0 Z " fill="#0F1217" transform="translate(331,327)"/>
<path d="M0 0 C1.52519276 0.08937803 3.04681929 0.24537146 4.5625 0.4375 C5.80193359 0.59025391 5.80193359 0.59025391 7.06640625 0.74609375 C7.70449219 0.82988281 8.34257812 0.91367187 9 1 C9 1.33 9 1.66 9 2 C5.7 2.66 2.4 3.32 -1 4 C-1 1 -1 1 0 0 Z " fill="#636363" transform="translate(259,267)"/>
<path d="M0 0 C0.33 0 0.66 0 1 0 C1 3.63 1 7.26 1 11 C-1 8 -1 8 -2 5 C-1.0625 2.3125 -1.0625 2.3125 0 0 Z " fill="#2B2B2A" transform="translate(287,202)"/>
</svg>
